<svg xmlns="http://www.w3.org/2000/svg" xmlns:xlink="http://www.w3.org/1999/xlink" width="500" zoomAndPan="magnify" viewBox="0 0 375 374.999991" height="500" preserveAspectRatio="xMidYMid meet" version="1.0"><defs><clipPath id="862544028d"><path d="M 35.292969 35.292969 L 337.496094 35.292969 L 337.496094 337.496094 L 35.292969 337.496094 Z M 35.292969 35.292969 " clip-rule="nonzero"/></clipPath><clipPath id="14af90d8ab"><path d="M 186.394531 35.292969 C 102.941406 35.292969 35.292969 102.941406 35.292969 186.394531 C 35.292969 269.84375 102.941406 337.496094 186.394531 337.496094 C 269.84375 337.496094 337.496094 269.84375 337.496094 186.394531 C 337.496094 102.941406 269.84375 35.292969 186.394531 35.292969 Z M 186.394531 35.292969 " clip-rule="nonzero"/></clipPath></defs><g clip-path="url(#862544028d)"><g clip-path="url(#14af90d8ab)"><path stroke-linecap="butt" transform="matrix(0.75, 0, 0, 0.75, 35.292442, 35.292438)" fill="none" stroke-linejoin="miter" d="M 201.469465 0.000707877 C 90.198624 0.000707877 0.000701877 90.19863 0.000701877 201.469471 C 0.000701877 312.735103 90.198624 402.938234 201.469465 402.938234 C 312.735097 402.938234 402.938228 312.735103 402.938228 201.469471 C 402.938228 90.19863 312.735097 0.000707877 201.469465 0.000707877 Z M 201.469465 0.000707877 " stroke="#374271" stroke-width="26" stroke-opacity="1" stroke-miterlimit="4"/></g></g><path fill="#374271" d="M 250.808594 187.550781 L 174.015625 264.34375 C 169.910156 268.449219 169.910156 274.996094 174.015625 279.101562 C 178.121094 283.207031 184.667969 283.207031 188.773438 279.101562 L 273 194.984375 C 277.105469 190.878906 277.105469 184.222656 273 180.117188 L 188.773438 95.886719 C 184.667969 91.78125 178.121094 91.78125 174.015625 95.886719 C 169.910156 99.992188 169.910156 106.652344 174.015625 110.757812 Z M 178.785156 187.550781 L 101.992188 264.34375 C 97.886719 268.449219 97.886719 274.996094 101.992188 279.101562 C 106.101562 283.207031 112.757812 283.207031 116.863281 279.101562 L 200.980469 194.984375 C 205.199219 190.878906 205.085938 184.222656 200.980469 180.117188 L 116.863281 95.886719 C 112.757812 91.78125 106.101562 91.78125 101.992188 95.886719 C 97.886719 99.992188 97.886719 106.652344 101.992188 110.757812 Z M 178.785156 187.550781 " fill-opacity="1" fill-rule="evenodd"/></svg>