<svg xmlns="http://www.w3.org/2000/svg" xmlns:xlink="http://www.w3.org/1999/xlink" width="500" zoomAndPan="magnify" viewBox="0 0 375 374.999991" height="500" preserveAspectRatio="xMidYMid meet" version="1.0"><defs><clipPath id="ffd5ccf219"><path d="M 114.152344 79.527344 L 260.550781 79.527344 L 260.550781 225.777344 L 114.152344 225.777344 Z M 114.152344 79.527344 " clip-rule="nonzero"/></clipPath><clipPath id="ce6494247b"><path d="M 98.550781 105.15625 L 276.257812 105.15625 L 276.257812 200.070312 L 98.550781 200.070312 Z M 98.550781 105.15625 " clip-rule="nonzero"/></clipPath></defs><path fill="#d40000" d="M 234.789062 152.652344 C 234.789062 178.851562 213.574219 200.09375 187.40625 200.09375 C 161.238281 200.09375 140.023438 178.851562 140.023438 152.652344 C 140.023438 126.453125 161.238281 105.214844 187.40625 105.214844 C 213.574219 105.214844 234.789062 126.453125 234.789062 152.652344 " fill-opacity="1" fill-rule="nonzero"/><path fill="#d40000" d="M 187.40625 86.164062 C 150.785156 86.164062 120.996094 115.992188 120.996094 152.652344 C 120.996094 189.3125 150.785156 219.140625 187.40625 219.140625 C 224.023438 219.140625 253.816406 189.3125 253.816406 152.652344 C 253.816406 115.992188 224.023438 86.164062 187.40625 86.164062 Z M 187.40625 220.34375 C 150.125 220.34375 119.792969 189.976562 119.792969 152.652344 C 119.792969 115.328125 150.125 84.964844 187.40625 84.964844 C 224.683594 84.964844 255.015625 115.328125 255.015625 152.652344 C 255.015625 189.976562 224.683594 220.34375 187.40625 220.34375 " fill-opacity="1" fill-rule="nonzero"/><g clip-path="url(#ffd5ccf219)"><path fill="#d40000" d="M 187.40625 82.332031 C 148.675781 82.332031 117.164062 113.878906 117.164062 152.652344 C 117.164062 191.429688 148.675781 222.976562 187.40625 222.976562 C 226.136719 222.976562 257.644531 191.429688 257.644531 152.652344 C 257.644531 113.878906 226.136719 82.332031 187.40625 82.332031 Z M 187.40625 225.777344 C 147.128906 225.777344 114.363281 192.972656 114.363281 152.652344 C 114.363281 112.332031 147.128906 79.527344 187.40625 79.527344 C 227.679688 79.527344 260.445312 112.332031 260.445312 152.652344 C 260.445312 192.972656 227.679688 225.777344 187.40625 225.777344 " fill-opacity="1" fill-rule="nonzero"/></g><path fill="#ffffff" d="M 269.15625 156.046875 L 119.265625 198.003906 C 115.355469 199.097656 111.292969 196.808594 110.199219 192.894531 L 100.550781 158.335938 C 99.457031 154.417969 101.742188 150.355469 105.65625 149.257812 L 255.542969 107.304688 C 259.457031 106.210938 263.515625 108.496094 264.609375 112.414062 L 274.257812 146.972656 C 275.355469 150.886719 273.066406 154.953125 269.15625 156.046875 " fill-opacity="1" fill-rule="nonzero"/><g clip-path="url(#ce6494247b)"><path fill="#d40000" d="M 102.277344 159.308594 L 111.171875 191.164062 C 112.265625 195.082031 116.324219 197.371094 120.238281 196.273438 L 267.429688 155.074219 C 271.34375 153.980469 273.628906 149.917969 272.535156 145.996094 L 263.636719 114.140625 C 262.542969 110.226562 258.484375 107.9375 254.574219 109.03125 L 107.378906 150.230469 C 103.46875 151.328125 101.183594 155.390625 102.277344 159.308594 Z M 109.230469 194.621094 L 98.824219 157.363281 C 97.730469 153.445312 100.015625 149.382812 103.929688 148.285156 L 256.515625 105.578125 C 260.425781 104.480469 264.488281 106.769531 265.582031 110.6875 L 275.984375 147.945312 C 277.078125 151.859375 274.792969 155.925781 270.878906 157.019531 L 118.296875 199.730469 C 114.382812 200.824219 110.324219 198.535156 109.230469 194.621094 " fill-opacity="1" fill-rule="nonzero"/></g><path fill="#ffffff" d="M 158.128906 124.9375 L 159.777344 126.777344 L 162.226562 126.457031 L 160.988281 128.597656 L 162.042969 130.828125 L 159.628906 130.3125 L 157.835938 132.007812 L 157.582031 129.550781 L 155.417969 128.363281 L 157.675781 127.363281 L 158.128906 124.9375 " fill-opacity="1" fill-rule="nonzero"/><path fill="#ffffff" d="M 165.167969 117.359375 L 167.511719 119.972656 L 170.992188 119.523438 L 169.230469 122.5625 L 170.734375 125.738281 L 167.300781 125 L 164.75 127.414062 L 164.390625 123.917969 L 161.3125 122.234375 L 164.519531 120.8125 L 165.167969 117.359375 " fill-opacity="1" fill-rule="nonzero"/><path fill="#ffffff" d="M 188.132812 110.835938 L 190.378906 113.347656 L 193.722656 112.914062 L 192.03125 115.832031 L 193.472656 118.878906 L 190.179688 118.171875 L 187.730469 120.488281 L 187.386719 117.132812 L 184.429688 115.515625 L 187.511719 114.148438 L 188.132812 110.835938 " fill-opacity="1" fill-rule="nonzero"/><path fill="#ffffff" d="M 197.945312 113.480469 L 199.59375 115.320312 L 202.042969 115.003906 L 200.800781 117.140625 L 201.859375 119.375 L 199.445312 118.855469 L 197.652344 120.550781 L 197.398438 118.09375 L 195.234375 116.90625 L 197.488281 115.90625 L 197.945312 113.480469 " fill-opacity="1" fill-rule="nonzero"/><path fill="#ffffff" d="M 175.527344 109.1875 L 179.054688 113.125 L 184.292969 112.449219 L 181.644531 117.023438 L 183.90625 121.800781 L 178.738281 120.695312 L 174.898438 124.324219 L 174.355469 119.0625 L 169.722656 116.527344 L 174.550781 114.382812 L 175.527344 109.1875 " fill-opacity="1" fill-rule="nonzero"/><path fill="#ffffff" d="M 216.625 179.183594 L 214.976562 177.34375 L 212.527344 177.660156 L 213.765625 175.519531 L 212.710938 173.289062 L 215.121094 173.808594 L 216.917969 172.109375 L 217.171875 174.570312 L 219.335938 175.753906 L 217.082031 176.753906 L 216.625 179.183594 " fill-opacity="1" fill-rule="nonzero"/><path fill="#ffffff" d="M 209.585938 186.757812 L 207.242188 184.144531 L 203.761719 184.59375 L 205.523438 181.554688 L 204.019531 178.378906 L 207.449219 179.117188 L 210.003906 176.707031 L 210.363281 180.199219 L 213.441406 181.886719 L 210.234375 183.308594 L 209.585938 186.757812 " fill-opacity="1" fill-rule="nonzero"/><path fill="#ffffff" d="M 186.621094 193.28125 L 184.371094 190.769531 L 181.03125 191.203125 L 182.722656 188.285156 L 181.28125 185.238281 L 184.574219 185.945312 L 187.023438 183.628906 L 187.367188 186.984375 L 190.324219 188.601562 L 187.246094 189.964844 L 186.621094 193.28125 " fill-opacity="1" fill-rule="nonzero"/><path fill="#ffffff" d="M 176.808594 190.636719 L 175.160156 188.800781 L 172.714844 189.113281 L 173.949219 186.976562 L 172.894531 184.746094 L 175.308594 185.265625 L 177.101562 183.566406 L 177.355469 186.027344 L 179.519531 187.210938 L 177.265625 188.210938 L 176.808594 190.636719 " fill-opacity="1" fill-rule="nonzero"/><path fill="#ffffff" d="M 199.226562 194.929688 L 195.699219 190.992188 L 190.460938 191.667969 L 193.113281 187.09375 L 190.847656 182.316406 L 196.015625 183.425781 L 199.855469 179.792969 L 200.398438 185.054688 L 205.035156 187.589844 L 200.203125 189.734375 L 199.226562 194.929688 " fill-opacity="1" fill-rule="nonzero"/><path fill="#d40000" d="M 116.484375 182.953125 C 116.960938 182.859375 117.503906 182.707031 117.972656 182.578125 C 119.332031 182.195312 120.28125 181.386719 119.695312 179.285156 L 113.886719 158.492188 L 118.167969 157.292969 L 123.886719 177.773438 C 125.40625 183.222656 122.882812 185.441406 119.652344 186.347656 C 118.875 186.5625 118.292969 186.726562 117.570312 186.84375 L 116.484375 182.953125 " fill-opacity="1" fill-rule="nonzero"/><path fill="#d40000" d="M 130.871094 176.363281 C 131.414062 178.308594 132.476562 178.8125 133.835938 178.429688 C 135.199219 178.050781 135.847656 177.070312 135.304688 175.125 L 131.191406 160.40625 C 130.648438 158.460938 129.589844 157.957031 128.226562 158.339844 C 126.863281 158.71875 126.214844 159.699219 126.761719 161.648438 Z M 122.558594 163.117188 C 121.339844 158.757812 122.941406 155.621094 127.140625 154.445312 C 131.339844 153.269531 134.332031 155.121094 135.546875 159.480469 L 139.503906 173.652344 C 140.722656 178.011719 139.125 181.148438 134.925781 182.324219 C 130.722656 183.5 127.734375 181.648438 126.515625 177.289062 L 122.558594 163.117188 " fill-opacity="1" fill-rule="nonzero"/><path fill="#d40000" d="M 136.480469 152.167969 L 140.757812 150.972656 L 148.371094 178.222656 L 144.089844 179.421875 L 136.480469 152.167969 " fill-opacity="1" fill-rule="nonzero"/><path fill="#d40000" d="M 149.855469 156.527344 L 149.777344 156.546875 L 155.292969 176.285156 L 151.441406 177.367188 L 143.832031 150.109375 L 149.199219 148.609375 L 158.070312 163.714844 L 158.148438 163.691406 L 153.589844 147.378906 L 157.402344 146.3125 L 165.011719 173.566406 L 160.621094 174.796875 L 149.855469 156.527344 " fill-opacity="1" fill-rule="nonzero"/><path fill="#d40000" d="M 170.582031 142.621094 L 176.457031 163.644531 C 177 165.59375 178.050781 166.054688 179.410156 165.671875 C 180.773438 165.292969 181.433594 164.351562 180.890625 162.40625 L 175.019531 141.378906 L 179.0625 140.25 L 184.855469 161 C 186.074219 165.359375 184.59375 168.464844 180.394531 169.636719 C 176.191406 170.8125 173.320312 168.933594 172.101562 164.570312 L 166.308594 143.820312 L 170.582031 142.621094 " fill-opacity="1" fill-rule="nonzero"/><path fill="#d40000" d="M 187.644531 137.511719 C 191.808594 136.34375 194.644531 138.238281 195.859375 142.597656 L 196.097656 143.457031 L 192.054688 144.589844 L 191.738281 143.457031 C 191.195312 141.511719 190.210938 140.988281 188.851562 141.371094 C 187.488281 141.753906 186.917969 142.710938 187.460938 144.65625 C 188.015625 146.640625 189.285156 147.882812 192.769531 149.550781 C 197.230469 151.703125 198.988281 153.644531 199.855469 156.761719 C 201.074219 161.121094 199.59375 164.222656 195.394531 165.398438 C 191.191406 166.574219 188.320312 164.691406 187.101562 160.328125 L 186.632812 158.65625 L 190.675781 157.523438 L 191.222656 159.472656 C 191.765625 161.417969 192.816406 161.878906 194.175781 161.5 C 195.539062 161.117188 196.199219 160.175781 195.65625 158.230469 C 195.101562 156.242188 193.832031 155.003906 190.347656 153.335938 C 185.886719 151.183594 184.128906 149.242188 183.261719 146.125 C 182.042969 141.765625 183.484375 138.671875 187.644531 137.511719 " fill-opacity="1" fill-rule="nonzero"/><path fill="#d40000" d="M 208.535156 140.101562 L 208.457031 140.121094 L 213.972656 159.863281 L 210.121094 160.9375 L 202.511719 133.683594 L 207.878906 132.183594 L 216.75 147.289062 L 216.828125 147.265625 L 212.269531 130.953125 L 216.082031 129.886719 L 223.691406 157.140625 L 219.300781 158.371094 L 208.535156 140.101562 " fill-opacity="1" fill-rule="nonzero"/><path fill="#d40000" d="M 228.941406 148.914062 C 229.484375 150.859375 230.546875 151.359375 231.910156 150.980469 C 233.269531 150.597656 233.917969 149.617188 233.375 147.671875 L 229.265625 132.953125 C 228.722656 131.007812 227.660156 130.507812 226.296875 130.886719 C 224.9375 131.269531 224.289062 132.25 224.832031 134.195312 Z M 220.628906 135.664062 C 219.410156 131.304688 221.011719 128.171875 225.210938 126.996094 C 229.410156 125.820312 232.402344 127.667969 233.621094 132.03125 L 237.578125 146.199219 C 238.792969 150.5625 237.195312 153.695312 232.996094 154.871094 C 228.796875 156.046875 225.804688 154.199219 224.589844 149.839844 L 220.628906 135.664062 " fill-opacity="1" fill-rule="nonzero"/><path fill="#d40000" d="M 247.636719 134.78125 L 247.558594 134.800781 L 250.097656 149.75 L 244.222656 151.394531 L 233.582031 124.988281 L 237.742188 123.824219 L 246 144.683594 L 246.078125 144.660156 L 242.097656 122.605469 L 246.21875 121.449219 L 254.363281 142.511719 L 254.441406 142.488281 L 250.574219 120.230469 L 254.308594 119.183594 L 258.886719 147.289062 L 253.207031 148.878906 L 247.636719 134.78125 " fill-opacity="1" fill-rule="nonzero"/><path fill="#d40000" d="M 132 124.144531 L 133.183594 121.761719 L 139.984375 125.140625 C 140.617188 125.453125 141.105469 125.878906 141.457031 126.417969 C 141.804688 126.957031 141.988281 127.558594 141.996094 128.214844 C 142.011719 128.878906 141.855469 129.527344 141.535156 130.175781 C 141 131.253906 140.3125 131.960938 139.46875 132.292969 C 138.628906 132.621094 137.707031 132.535156 136.707031 132.039062 L 137.898438 129.640625 C 138.351562 129.867188 138.722656 129.953125 139.003906 129.894531 C 139.285156 129.839844 139.515625 129.628906 139.699219 129.261719 C 139.863281 128.929688 139.867188 128.613281 139.707031 128.308594 C 139.550781 128.007812 139.246094 127.746094 138.804688 127.523438 L 132 124.144531 " fill-opacity="1" fill-rule="nonzero"/><path fill="#d40000" d="M 143.015625 116.800781 C 142.132812 116.144531 141.355469 115.789062 140.675781 115.742188 C 140 115.695312 139.457031 115.949219 139.050781 116.496094 C 138.25 117.570312 138.628906 118.738281 140.195312 120 L 140.839844 120.492188 C 141.710938 121.140625 142.488281 121.496094 143.167969 121.558594 C 143.851562 121.617188 144.402344 121.363281 144.828125 120.792969 C 145.230469 120.253906 145.3125 119.664062 145.070312 119.027344 C 144.832031 118.394531 144.28125 117.753906 143.421875 117.105469 Z M 145.007812 114.898438 C 145.871094 115.546875 146.519531 116.277344 146.945312 117.097656 C 147.371094 117.914062 147.546875 118.753906 147.464844 119.617188 C 147.382812 120.472656 147.058594 121.28125 146.496094 122.039062 C 145.933594 122.796875 145.261719 123.339844 144.476562 123.664062 C 143.691406 123.988281 142.855469 124.074219 141.964844 123.921875 C 141.078125 123.765625 140.207031 123.382812 139.359375 122.777344 L 138.859375 122.402344 C 137.988281 121.753906 137.34375 121.023438 136.917969 120.207031 C 136.488281 119.390625 136.316406 118.550781 136.402344 117.683594 C 136.480469 116.820312 136.808594 116.007812 137.375 115.246094 C 137.933594 114.492188 138.613281 113.957031 139.410156 113.632812 C 140.207031 113.3125 141.054688 113.230469 141.960938 113.398438 C 142.863281 113.5625 143.746094 113.960938 144.597656 114.59375 L 145.007812 114.898438 " fill-opacity="1" fill-rule="nonzero"/><path fill="#d40000" d="M 152.105469 115.453125 L 150.226562 117.339844 L 142.394531 109.511719 L 144.273438 107.628906 L 152.105469 115.453125 " fill-opacity="1" fill-rule="nonzero"/><path fill="#d40000" d="M 160.480469 108.773438 L 158.355469 110.359375 L 151.09375 107.175781 L 155.207031 112.707031 L 153.070312 114.300781 L 146.457031 105.417969 L 148.597656 103.820312 L 155.851562 107.007812 L 151.738281 101.480469 L 153.871094 99.890625 L 160.480469 108.773438 " fill-opacity="1" fill-rule="nonzero"/><path fill="#d40000" d="M 168.875 92.960938 L 171.496094 99.71875 C 171.792969 100.488281 171.890625 101.214844 171.78125 101.898438 C 171.671875 102.589844 171.371094 103.195312 170.875 103.726562 C 170.378906 104.257812 169.714844 104.683594 168.886719 105.007812 C 167.628906 105.496094 166.511719 105.554688 165.535156 105.183594 C 164.558594 104.8125 163.847656 104.0625 163.390625 102.933594 L 160.746094 96.121094 L 163.25 95.148438 L 165.910156 102.007812 C 166.378906 103.128906 167.121094 103.488281 168.140625 103.089844 C 168.65625 102.890625 168.992188 102.597656 169.144531 102.210938 C 169.300781 101.824219 169.253906 101.3125 169.003906 100.675781 L 166.386719 93.929688 L 168.875 92.960938 " fill-opacity="1" fill-rule="nonzero"/><path fill="#d40000" d="M 179.089844 99.035156 C 179.019531 98.652344 178.828125 98.378906 178.515625 98.214844 C 178.203125 98.050781 177.6875 97.921875 176.960938 97.820312 C 176.234375 97.71875 175.636719 97.601562 175.160156 97.46875 C 173.621094 97.039062 172.738281 96.222656 172.511719 95.011719 C 172.398438 94.40625 172.472656 93.84375 172.738281 93.316406 C 173.003906 92.789062 173.433594 92.335938 174.027344 91.957031 C 174.621094 91.578125 175.316406 91.316406 176.121094 91.164062 C 176.902344 91.015625 177.628906 91.023438 178.300781 91.1875 C 178.972656 91.347656 179.527344 91.65625 179.972656 92.105469 C 180.410156 92.558594 180.691406 93.117188 180.816406 93.777344 L 178.203125 94.269531 C 178.121094 93.828125 177.921875 93.507812 177.601562 93.316406 C 177.285156 93.121094 176.894531 93.070312 176.433594 93.15625 C 175.964844 93.246094 175.613281 93.417969 175.378906 93.675781 C 175.148438 93.933594 175.0625 94.222656 175.121094 94.542969 C 175.175781 94.820312 175.371094 95.042969 175.714844 95.21875 C 176.054688 95.386719 176.625 95.523438 177.421875 95.621094 C 178.21875 95.722656 178.886719 95.867188 179.421875 96.054688 C 180.722656 96.511719 181.488281 97.335938 181.710938 98.527344 C 181.890625 99.480469 181.671875 100.292969 181.058594 100.972656 C 180.441406 101.652344 179.507812 102.109375 178.261719 102.34375 C 177.378906 102.507812 176.550781 102.5 175.777344 102.320312 C 175.003906 102.140625 174.382812 101.804688 173.917969 101.324219 C 173.453125 100.839844 173.152344 100.238281 173.019531 99.523438 L 175.648438 99.027344 C 175.757812 99.609375 175.988281 100.011719 176.34375 100.230469 C 176.695312 100.449219 177.210938 100.496094 177.886719 100.371094 C 178.324219 100.289062 178.644531 100.128906 178.863281 99.894531 C 179.078125 99.660156 179.15625 99.375 179.089844 99.035156 " fill-opacity="1" fill-rule="nonzero"/><path fill="#d40000" d="M 196.046875 101.890625 L 193.402344 101.675781 L 190.042969 94.492188 L 189.496094 101.363281 L 186.835938 101.152344 L 187.714844 90.109375 L 190.375 90.320312 L 193.730469 97.503906 L 194.277344 90.632812 L 196.929688 90.84375 L 196.046875 101.890625 " fill-opacity="1" fill-rule="nonzero"/><path fill="#d40000" d="M 205.207031 98.40625 C 205.511719 97.351562 205.566406 96.496094 205.371094 95.847656 C 205.175781 95.195312 204.75 94.777344 204.089844 94.585938 C 202.808594 94.214844 201.847656 94.984375 201.222656 96.890625 L 200.988281 97.671875 C 200.6875 98.714844 200.628906 99.566406 200.8125 100.230469 C 200.996094 100.890625 201.429688 101.316406 202.113281 101.515625 C 202.757812 101.699219 203.335938 101.570312 203.847656 101.121094 C 204.355469 100.671875 204.761719 99.929688 205.066406 98.898438 Z M 207.683594 99.609375 C 207.386719 100.648438 206.925781 101.511719 206.3125 102.199219 C 205.699219 102.886719 204.972656 103.34375 204.140625 103.570312 C 203.308594 103.796875 202.441406 103.78125 201.535156 103.515625 C 200.628906 103.257812 199.886719 102.816406 199.304688 102.195312 C 198.722656 101.578125 198.347656 100.824219 198.179688 99.933594 C 198.011719 99.046875 198.0625 98.097656 198.332031 97.089844 L 198.503906 96.488281 C 198.804688 95.445312 199.261719 94.582031 199.875 93.894531 C 200.484375 93.207031 201.210938 92.75 202.050781 92.523438 C 202.886719 92.296875 203.761719 92.3125 204.671875 92.578125 C 205.574219 92.835938 206.3125 93.285156 206.894531 93.914062 C 207.480469 94.550781 207.851562 95.320312 208.015625 96.222656 C 208.179688 97.128906 208.113281 98.09375 207.824219 99.117188 L 207.683594 99.609375 " fill-opacity="1" fill-rule="nonzero"/><path fill="#d40000" d="M 216.523438 105.453125 L 220.992188 99.988281 L 223.308594 101.273438 L 215.894531 109.828125 L 213.476562 108.488281 L 215.230469 102.242188 L 210.910156 107.066406 L 208.496094 105.730469 L 211.789062 94.894531 L 214.109375 96.179688 L 211.863281 102.871094 L 216.550781 97.527344 L 218.53125 98.628906 L 216.523438 105.453125 " fill-opacity="1" fill-rule="nonzero"/><path fill="#d40000" d="M 242.617188 181.53125 L 241.417969 183.910156 L 234.640625 180.484375 C 234.011719 180.167969 233.523438 179.738281 233.175781 179.199219 C 232.832031 178.65625 232.652344 178.054688 232.644531 177.394531 C 232.636719 176.734375 232.796875 176.082031 233.121094 175.441406 C 233.664062 174.363281 234.359375 173.660156 235.203125 173.335938 C 236.046875 173.011719 236.964844 173.105469 237.960938 173.605469 L 236.753906 176 C 236.304688 175.769531 235.9375 175.683594 235.652344 175.734375 C 235.371094 175.789062 235.136719 176 234.953125 176.367188 C 234.785156 176.695312 234.78125 177.011719 234.9375 177.316406 C 235.09375 177.621094 235.394531 177.882812 235.835938 178.109375 L 242.617188 181.53125 " fill-opacity="1" fill-rule="nonzero"/><path fill="#d40000" d="M 231.546875 188.816406 C 232.421875 189.480469 233.199219 189.835938 233.875 189.886719 C 234.550781 189.941406 235.097656 189.691406 235.507812 189.144531 C 236.316406 188.078125 235.941406 186.90625 234.386719 185.632812 L 233.746094 185.136719 C 232.878906 184.480469 232.105469 184.121094 231.425781 184.054688 C 230.742188 183.992188 230.1875 184.242188 229.761719 184.808594 C 229.355469 185.347656 229.269531 185.933594 229.503906 186.570312 C 229.742188 187.207031 230.285156 187.855469 231.140625 188.507812 Z M 229.539062 190.699219 C 228.679688 190.050781 228.039062 189.3125 227.617188 188.492188 C 227.195312 187.667969 227.027344 186.828125 227.113281 185.96875 C 227.203125 185.109375 227.53125 184.304688 228.097656 183.550781 C 228.667969 182.796875 229.34375 182.261719 230.128906 181.941406 C 230.917969 181.621094 231.753906 181.539062 232.644531 181.703125 C 233.53125 181.863281 234.398438 182.25 235.242188 182.863281 L 235.738281 183.242188 C 236.605469 183.894531 237.246094 184.632812 237.667969 185.453125 C 238.089844 186.269531 238.253906 187.109375 238.167969 187.976562 C 238.078125 188.839844 237.746094 189.648438 237.175781 190.40625 C 236.609375 191.15625 235.925781 191.6875 235.128906 192.007812 C 234.332031 192.324219 233.480469 192.394531 232.574219 192.222656 C 231.675781 192.054688 230.796875 191.648438 229.945312 191.007812 L 229.539062 190.699219 " fill-opacity="1" fill-rule="nonzero"/><path fill="#d40000" d="M 222.449219 190.09375 L 224.339844 188.21875 L 232.121094 196.101562 L 230.230469 197.972656 L 222.449219 190.09375 " fill-opacity="1" fill-rule="nonzero"/><path fill="#d40000" d="M 214.035156 196.714844 L 216.171875 195.140625 L 223.410156 198.371094 L 219.332031 192.816406 L 221.480469 191.234375 L 228.03125 200.164062 L 225.882812 201.746094 L 218.652344 198.507812 L 222.726562 204.066406 L 220.582031 205.640625 L 214.035156 196.714844 " fill-opacity="1" fill-rule="nonzero"/><path fill="#d40000" d="M 205.554688 212.460938 L 202.972656 205.6875 C 202.679688 204.917969 202.589844 204.191406 202.703125 203.503906 C 202.816406 202.820312 203.121094 202.210938 203.621094 201.683594 C 204.121094 201.160156 204.785156 200.734375 205.617188 200.417969 C 206.878906 199.9375 207.996094 199.886719 208.96875 200.261719 C 209.941406 200.640625 210.652344 201.394531 211.097656 202.527344 L 213.699219 209.351562 L 211.191406 210.308594 L 208.574219 203.433594 C 208.113281 202.3125 207.371094 201.945312 206.347656 202.335938 C 205.832031 202.535156 205.496094 202.828125 205.339844 203.210938 C 205.183594 203.597656 205.226562 204.109375 205.472656 204.75 L 208.046875 211.511719 L 205.554688 212.460938 " fill-opacity="1" fill-rule="nonzero"/><path fill="#d40000" d="M 195.351562 206.324219 C 195.421875 206.710938 195.613281 206.984375 195.921875 207.152344 C 196.230469 207.316406 196.75 207.453125 197.472656 207.558594 C 198.199219 207.664062 198.796875 207.785156 199.269531 207.917969 C 200.808594 208.359375 201.683594 209.183594 201.902344 210.394531 C 202.011719 211 201.933594 211.566406 201.667969 212.09375 C 201.398438 212.617188 200.964844 213.066406 200.371094 213.441406 C 199.773438 213.8125 199.074219 214.074219 198.269531 214.21875 C 197.488281 214.359375 196.761719 214.347656 196.089844 214.183594 C 195.417969 214.015625 194.863281 213.703125 194.425781 213.25 C 193.988281 212.792969 193.707031 212.234375 193.589844 211.574219 L 196.207031 211.097656 C 196.289062 211.542969 196.484375 211.863281 196.800781 212.058594 C 197.117188 212.25 197.507812 212.308594 197.972656 212.222656 C 198.441406 212.140625 198.792969 211.96875 199.027344 211.710938 C 199.261719 211.457031 199.347656 211.167969 199.289062 210.847656 C 199.238281 210.566406 199.042969 210.339844 198.703125 210.167969 C 198.363281 209.996094 197.792969 209.855469 197 209.75 C 196.203125 209.644531 195.535156 209.496094 195.003906 209.304688 C 193.703125 208.839844 192.945312 208.011719 192.730469 206.816406 C 192.558594 205.863281 192.78125 205.050781 193.398438 204.375 C 194.019531 203.699219 194.957031 203.25 196.207031 203.023438 C 197.089844 202.863281 197.917969 202.878906 198.691406 203.0625 C 199.460938 203.25 200.078125 203.589844 200.542969 204.074219 C 201.003906 204.5625 201.296875 205.164062 201.425781 205.882812 L 198.792969 206.359375 C 198.691406 205.773438 198.460938 205.371094 198.109375 205.148438 C 197.757812 204.925781 197.242188 204.878906 196.566406 205 C 196.128906 205.078125 195.804688 205.234375 195.585938 205.46875 C 195.367188 205.699219 195.289062 205.984375 195.351562 206.324219 " fill-opacity="1" fill-rule="nonzero"/><path fill="#d40000" d="M 178.417969 203.355469 L 181.058594 203.585938 L 184.371094 210.792969 L 184.964844 203.925781 L 187.625 204.15625 L 186.667969 215.195312 L 184.011719 214.960938 L 180.707031 207.753906 L 180.109375 214.625 L 177.460938 214.394531 L 178.417969 203.355469 " fill-opacity="1" fill-rule="nonzero"/><path fill="#d40000" d="M 169.238281 206.773438 C 168.925781 207.832031 168.867188 208.683594 169.058594 209.335938 C 169.246094 209.984375 169.671875 210.410156 170.328125 210.605469 C 171.609375 210.984375 172.574219 210.222656 173.214844 208.316406 L 173.453125 207.539062 C 173.761719 206.496094 173.824219 205.648438 173.644531 204.984375 C 173.464844 204.324219 173.035156 203.890625 172.355469 203.691406 C 171.707031 203.5 171.128906 203.625 170.617188 204.070312 C 170.105469 204.515625 169.691406 205.253906 169.382812 206.285156 Z M 166.769531 205.558594 C 167.074219 204.523438 167.539062 203.660156 168.15625 202.976562 C 168.777344 202.292969 169.503906 201.84375 170.339844 201.621094 C 171.171875 201.398438 172.042969 201.421875 172.945312 201.691406 C 173.847656 201.957031 174.589844 202.402344 175.167969 203.027344 C 175.742188 203.652344 176.113281 204.40625 176.273438 205.296875 C 176.4375 206.183594 176.378906 207.132812 176.105469 208.140625 L 175.925781 208.738281 C 175.621094 209.78125 175.15625 210.640625 174.539062 211.324219 C 173.925781 212.007812 173.195312 212.460938 172.355469 212.679688 C 171.515625 212.902344 170.640625 212.878906 169.734375 212.609375 C 168.835938 212.34375 168.097656 211.894531 167.519531 211.257812 C 166.941406 210.621094 166.574219 209.847656 166.414062 208.941406 C 166.257812 208.035156 166.328125 207.070312 166.625 206.046875 L 166.769531 205.558594 " fill-opacity="1" fill-rule="nonzero"/><path fill="#d40000" d="M 157.96875 199.652344 L 153.464844 205.089844 L 151.15625 203.792969 L 158.625 195.285156 L 161.039062 196.640625 L 159.238281 202.875 L 163.59375 198.078125 L 166 199.433594 L 162.632812 210.246094 L 160.320312 208.945312 L 162.613281 202.265625 L 157.890625 207.578125 L 155.914062 206.46875 L 157.96875 199.652344 " fill-opacity="1" fill-rule="nonzero"/></svg>