<svg xmlns="http://www.w3.org/2000/svg" xmlns:xlink="http://www.w3.org/1999/xlink" width="500" zoomAndPan="magnify" viewBox="0 0 375 374.999991" height="500" preserveAspectRatio="xMidYMid meet" version="1.0"><defs><clipPath id="1ff9d0b20c"><path d="M 180 181.121094 L 250.652344 181.121094 L 250.652344 289.785156 L 180 289.785156 Z M 180 181.121094 " clip-rule="nonzero"/></clipPath><clipPath id="03c7488443"><path d="M 121.300781 139.359375 L 257.589844 139.359375 L 257.589844 246.542969 L 121.300781 246.542969 Z M 121.300781 139.359375 " clip-rule="nonzero"/></clipPath><clipPath id="f735b08a66"><path d="M 81 58.785156 L 184 58.785156 L 184 140 L 81 140 Z M 81 58.785156 " clip-rule="nonzero"/></clipPath></defs><g clip-path="url(#1ff9d0b20c)"><path fill="#414042" d="M 244.785156 289.796875 C 242.820312 289.796875 240.90625 288.800781 239.796875 287.003906 L 180.902344 190.125 C 179.226562 187.371094 180.105469 183.785156 182.859375 182.117188 C 185.625 180.453125 189.195312 181.320312 190.871094 184.066406 L 249.761719 280.941406 C 251.4375 283.691406 250.558594 287.28125 247.804688 288.953125 C 246.859375 289.527344 245.8125 289.796875 244.785156 289.796875 " fill-opacity="1" fill-rule="nonzero"/></g><path fill="#ffc83f" d="M 170.660156 162.050781 C 203.417969 142.121094 238.417969 139.875 248.847656 157.011719 C 259.253906 174.152344 241.140625 204.183594 208.386719 224.105469 C 175.628906 244.019531 140.628906 246.269531 130.210938 229.132812 C 119.78125 212 137.90625 181.957031 170.660156 162.050781 " fill-opacity="1" fill-rule="evenodd"/><g clip-path="url(#03c7488443)"><path fill="#414042" d="M 222.203125 151.332031 C 207.78125 151.332031 190.097656 157.050781 173.683594 167.03125 C 158.636719 176.1875 146.40625 187.761719 139.238281 199.640625 C 132.863281 210.207031 131.390625 219.859375 135.1875 226.105469 C 138.601562 231.71875 146.300781 234.820312 156.84375 234.820312 C 171.261719 234.820312 188.949219 229.089844 205.351562 219.121094 C 237.851562 199.363281 251.507812 172.617188 243.855469 160.039062 C 240.441406 154.421875 232.757812 151.332031 222.203125 151.332031 Z M 156.84375 246.476562 C 142.058594 246.476562 130.832031 241.390625 125.222656 232.167969 C 119.003906 221.929688 120.433594 208.238281 129.25 193.621094 C 137.363281 180.160156 150.996094 167.179688 167.628906 157.066406 C 185.8125 146.007812 205.707031 139.671875 222.203125 139.671875 C 236.980469 139.671875 248.207031 144.75 253.820312 153.984375 C 266.089844 174.179688 247.457031 207.171875 211.402344 229.082031 C 193.234375 240.140625 173.34375 246.476562 156.84375 246.476562 " fill-opacity="1" fill-rule="nonzero"/></g><path fill="#ffc83f" d="M 114.90625 115.933594 L 155.167969 214.65625 C 184.144531 211.691406 206.886719 196.972656 224.503906 172.503906 L 152.746094 91.160156 L 114.90625 115.933594 " fill-opacity="1" fill-rule="evenodd"/><path fill="#414042" d="M 122.121094 118.179688 L 158.867188 208.316406 C 182.085938 204.882812 201.171875 193.230469 216.992188 172.808594 L 151.71875 98.800781 Z M 155.167969 220.480469 C 152.816406 220.480469 150.664062 219.058594 149.773438 216.851562 L 109.519531 118.144531 C 108.460938 115.554688 109.375 112.582031 111.714844 111.058594 L 149.554688 86.28125 C 151.949219 84.691406 155.175781 85.125 157.125 87.296875 L 228.882812 168.648438 C 230.675781 170.691406 230.824219 173.699219 229.226562 175.914062 C 210.128906 202.433594 185.417969 217.421875 155.769531 220.453125 C 155.558594 220.46875 155.363281 220.480469 155.167969 220.480469 " fill-opacity="1" fill-rule="nonzero"/><path fill="#ffc83f" d="M 118.753906 76.652344 C 142.59375 62.160156 168.082031 60.519531 175.652344 72.996094 C 183.234375 85.46875 170.050781 107.324219 146.207031 121.816406 C 122.363281 136.3125 96.886719 137.953125 89.308594 125.480469 C 81.726562 113 94.917969 91.148438 118.753906 76.652344 " fill-opacity="1" fill-rule="evenodd"/><g clip-path="url(#f735b08a66)"><path fill="#414042" d="M 156.265625 70.441406 C 146.054688 70.441406 133.472656 74.519531 121.785156 81.636719 C 99.273438 95.316406 89.242188 114.132812 94.285156 122.457031 C 97.238281 127.304688 104.589844 128.03125 108.679688 128.03125 C 118.914062 128.03125 131.484375 123.953125 143.175781 116.835938 C 153.914062 110.304688 162.644531 102.0625 167.722656 93.636719 C 172.050781 86.472656 173.117188 80.050781 170.671875 76.023438 C 167.722656 71.164062 160.386719 70.441406 156.265625 70.441406 Z M 108.679688 139.691406 C 97.363281 139.691406 88.703125 135.714844 84.332031 128.507812 C 74.929688 113.046875 88.726562 88.082031 115.722656 71.667969 C 129.195312 63.484375 143.972656 58.785156 156.265625 58.785156 C 167.605469 58.785156 176.242188 62.757812 180.625 69.96875 C 185.492188 77.941406 184.433594 88.484375 177.703125 99.65625 C 171.667969 109.671875 161.554688 119.3125 149.226562 126.800781 C 135.753906 134.996094 120.972656 139.691406 108.679688 139.691406 " fill-opacity="1" fill-rule="nonzero"/></g></svg>