<svg xmlns="http://www.w3.org/2000/svg" xmlns:xlink="http://www.w3.org/1999/xlink" width="500" zoomAndPan="magnify" viewBox="0 0 375 374.999991" height="500" preserveAspectRatio="xMidYMid meet" version="1.0"><defs><g/><clipPath id="35aa020a17"><path d="M 37.5 199.78125 L 344.894531 199.78125 L 344.894531 315 L 37.5 315 Z M 37.5 199.78125 " clip-rule="nonzero"/></clipPath><clipPath id="264ce0ec03"><path d="M 77.25 199.78125 L 304.996094 199.78125 C 326.949219 199.78125 344.746094 217.578125 344.746094 239.53125 L 344.746094 275.25 C 344.746094 297.203125 326.949219 315 304.996094 315 L 77.25 315 C 55.296875 315 37.5 297.203125 37.5 275.25 L 37.5 239.53125 C 37.5 217.578125 55.296875 199.78125 77.25 199.78125 Z M 77.25 199.78125 " clip-rule="nonzero"/></clipPath><clipPath id="d0b6dd0712"><path d="M 37.5 239.421875 L 117.207031 239.421875 L 117.207031 315 L 37.5 315 Z M 37.5 239.421875 " clip-rule="nonzero"/></clipPath><clipPath id="39522f6ba6"><path d="M 265.039062 199.78125 L 344.746094 199.78125 L 344.746094 275.359375 L 265.039062 275.359375 Z M 265.039062 199.78125 " clip-rule="nonzero"/></clipPath><clipPath id="a0537c5835"><path d="M 57.007812 229.925781 L 111.941406 229.925781 L 111.941406 284.859375 L 57.007812 284.859375 Z M 57.007812 229.925781 " clip-rule="nonzero"/></clipPath><clipPath id="a0c2f0069f"><path d="M 84.472656 229.925781 C 69.304688 229.925781 57.007812 242.222656 57.007812 257.390625 C 57.007812 272.5625 69.304688 284.859375 84.472656 284.859375 C 99.644531 284.859375 111.941406 272.5625 111.941406 257.390625 C 111.941406 242.222656 99.644531 229.925781 84.472656 229.925781 Z M 84.472656 229.925781 " clip-rule="nonzero"/></clipPath><clipPath id="719669f218"><path d="M 73 245.820312 L 97.011719 245.820312 L 97.011719 270 L 73 270 Z M 73 245.820312 " clip-rule="nonzero"/></clipPath></defs><g clip-path="url(#35aa020a17)"><g clip-path="url(#264ce0ec03)"><path fill="#ffffff" d="M 37.5 199.78125 L 344.894531 199.78125 L 344.894531 315 L 37.5 315 Z M 37.5 199.78125 " fill-opacity="1" fill-rule="nonzero"/></g></g><g clip-path="url(#d0b6dd0712)"><path fill="#ffffff" d="M 37.5 239.421875 L 117.210938 239.421875 L 117.210938 315 L 37.5 315 Z M 37.5 239.421875 " fill-opacity="1" fill-rule="nonzero"/></g><g clip-path="url(#39522f6ba6)"><path fill="#ffffff" d="M 265.039062 199.78125 L 344.75 199.78125 L 344.75 275.359375 L 265.039062 275.359375 Z M 265.039062 199.78125 " fill-opacity="1" fill-rule="nonzero"/></g><g clip-path="url(#a0537c5835)"><g clip-path="url(#a0c2f0069f)"><path fill="#fdedef" d="M 57.007812 229.925781 L 111.941406 229.925781 L 111.941406 284.859375 L 57.007812 284.859375 Z M 57.007812 229.925781 " fill-opacity="1" fill-rule="nonzero"/></g></g><g clip-path="url(#719669f218)"><path fill="#ee4a62" d="M 91.253906 261.175781 C 90.839844 260.929688 90.328125 260.9375 89.914062 261.179688 L 87.816406 262.429688 C 87.347656 262.710938 86.761719 262.675781 86.332031 262.339844 C 85.589844 261.761719 84.390625 260.78125 83.347656 259.742188 C 82.308594 258.699219 81.332031 257.5 80.75 256.757812 C 80.414062 256.328125 80.378906 255.742188 80.660156 255.273438 L 81.910156 253.175781 C 82.15625 252.761719 82.15625 252.246094 81.914062 251.832031 L 78.839844 246.578125 C 78.539062 246.070312 77.949219 245.820312 77.375 245.960938 C 76.820312 246.09375 76.097656 246.425781 75.339844 247.183594 C 72.96875 249.554688 71.710938 253.550781 80.625 262.46875 C 89.539062 271.382812 93.539062 270.125 95.910156 267.753906 C 96.667969 266.992188 96.996094 266.269531 97.132812 265.710938 C 97.273438 265.140625 97.027344 264.554688 96.519531 264.257812 C 95.253906 263.515625 92.519531 261.917969 91.253906 261.175781 Z M 91.253906 261.175781 " fill-opacity="1" fill-rule="nonzero"/></g><g fill="#878789" fill-opacity="1"><g transform="translate(124.873048, 249.127583)"><g><path d="M 6.609375 -7.984375 C 5.796875 -7.984375 5.15625 -7.828125 4.6875 -7.515625 C 4.226562 -7.210938 3.925781 -6.660156 3.78125 -5.859375 C 3.738281 -5.660156 3.71875 -5.234375 3.71875 -4.578125 C 3.707031 -4.242188 3.703125 -3.960938 3.703125 -3.734375 C 3.710938 -3.503906 3.722656 -3.316406 3.734375 -3.171875 C 3.785156 -2.535156 3.9375 -2.046875 4.1875 -1.703125 C 4.445312 -1.367188 4.832031 -1.128906 5.34375 -0.984375 C 5.5 -0.941406 5.785156 -0.921875 6.203125 -0.921875 C 6.453125 -0.921875 6.695312 -0.941406 6.9375 -0.984375 C 7.175781 -1.023438 7.394531 -1.097656 7.59375 -1.203125 C 7.800781 -1.304688 7.976562 -1.445312 8.125 -1.625 C 8.28125 -1.800781 8.394531 -2.023438 8.46875 -2.296875 C 8.507812 -2.421875 8.550781 -2.691406 8.59375 -3.109375 C 8.632812 -3.535156 8.65625 -4.117188 8.65625 -4.859375 C 8.65625 -5.222656 8.632812 -5.585938 8.59375 -5.953125 C 8.550781 -6.316406 8.457031 -6.644531 8.3125 -6.9375 C 8.164062 -7.226562 7.957031 -7.46875 7.6875 -7.65625 C 7.414062 -7.84375 7.054688 -7.953125 6.609375 -7.984375 Z M 5.703125 -9.921875 C 5.929688 -9.941406 6.125 -9.941406 6.28125 -9.921875 C 6.625 -9.910156 6.96875 -9.882812 7.3125 -9.84375 C 7.65625 -9.8125 7.988281 -9.742188 8.3125 -9.640625 C 8.632812 -9.546875 8.941406 -9.414062 9.234375 -9.25 C 9.535156 -9.09375 9.8125 -8.878906 10.0625 -8.609375 C 10.6875 -7.992188 11.070312 -7.160156 11.21875 -6.109375 C 11.25 -5.859375 11.265625 -5.21875 11.265625 -4.1875 C 11.253906 -3.664062 11.242188 -3.25 11.234375 -2.9375 C 11.222656 -2.632812 11.207031 -2.425781 11.1875 -2.3125 C 11.070312 -1.664062 10.882812 -1.070312 10.625 -0.53125 C 10.363281 0.0078125 9.945312 0.46875 9.375 0.84375 C 8.976562 1.113281 8.523438 1.316406 8.015625 1.453125 C 7.503906 1.585938 6.925781 1.65625 6.28125 1.65625 C 4.644531 1.65625 3.375 1.273438 2.46875 0.515625 C 1.570312 -0.242188 1.066406 -1.476562 0.953125 -3.1875 C 0.941406 -3.351562 0.929688 -3.550781 0.921875 -3.78125 C 0.921875 -4.007812 0.925781 -4.273438 0.9375 -4.578125 C 0.945312 -5.035156 0.976562 -5.476562 1.03125 -5.90625 C 1.09375 -6.332031 1.195312 -6.734375 1.34375 -7.109375 C 1.488281 -7.492188 1.679688 -7.851562 1.921875 -8.1875 C 2.171875 -8.519531 2.5 -8.828125 2.90625 -9.109375 C 3.644531 -9.585938 4.578125 -9.859375 5.703125 -9.921875 Z M 5.703125 -9.921875 "/></g></g></g><g fill="#878789" fill-opacity="1"><g transform="translate(137.055337, 249.127583)"><g><path d="M 1.359375 -9.703125 L 1.359375 -9.828125 L 3.078125 -9.828125 C 4.222656 -9.828125 4.796875 -9.816406 4.796875 -9.796875 C 4.796875 -9.773438 4.898438 -9.566406 5.109375 -9.171875 C 5.484375 -8.484375 5.929688 -7.609375 6.453125 -6.546875 C 6.984375 -5.492188 7.585938 -4.238281 8.265625 -2.78125 C 8.453125 -2.394531 8.585938 -2.097656 8.671875 -1.890625 C 8.765625 -1.691406 8.820312 -1.578125 8.84375 -1.546875 L 8.90625 -1.40625 L 8.890625 -5.625 L 8.890625 -9.828125 L 11.53125 -9.828125 L 11.53125 -6.21875 C 11.519531 -4.757812 11.507812 -3.554688 11.5 -2.609375 C 11.5 -1.660156 11.5 -0.96875 11.5 -0.53125 L 11.484375 1.53125 L 11.375 1.546875 C 11.320312 1.554688 10.785156 1.5625 9.765625 1.5625 C 9.265625 1.550781 8.882812 1.546875 8.625 1.546875 C 8.363281 1.546875 8.222656 1.539062 8.203125 1.53125 C 8.179688 1.519531 8.117188 1.425781 8.015625 1.25 C 7.910156 1.070312 7.785156 0.847656 7.640625 0.578125 C 7.503906 0.316406 7.351562 0.03125 7.1875 -0.28125 C 7.03125 -0.601562 6.878906 -0.90625 6.734375 -1.1875 C 6.585938 -1.46875 6.457031 -1.71875 6.34375 -1.9375 C 6.238281 -2.15625 6.171875 -2.289062 6.140625 -2.34375 C 5.828125 -3 5.5 -3.679688 5.15625 -4.390625 C 4.820312 -5.097656 4.484375 -5.835938 4.140625 -6.609375 L 3.78125 -7.453125 L 3.796875 -4.96875 C 3.796875 -4.90625 3.796875 -4.707031 3.796875 -4.375 C 3.796875 -4.039062 3.800781 -3.570312 3.8125 -2.96875 C 3.820312 -2.351562 3.828125 -1.835938 3.828125 -1.421875 C 3.828125 -1.003906 3.828125 -0.691406 3.828125 -0.484375 L 3.859375 1.53125 L 3.65625 1.546875 C 3.582031 1.554688 3.441406 1.5625 3.234375 1.5625 C 3.023438 1.5625 2.738281 1.5625 2.375 1.5625 C 1.6875 1.5625 1.320312 1.550781 1.28125 1.53125 C 1.238281 1.507812 1.226562 1.023438 1.25 0.078125 C 1.257812 -0.753906 1.265625 -1.597656 1.265625 -2.453125 C 1.273438 -3.304688 1.285156 -4.171875 1.296875 -5.046875 C 1.304688 -7.640625 1.320312 -9.015625 1.34375 -9.171875 C 1.351562 -9.335938 1.359375 -9.460938 1.359375 -9.546875 C 1.359375 -9.628906 1.359375 -9.679688 1.359375 -9.703125 Z M 1.359375 -9.703125 "/></g></g></g><g fill="#878789" fill-opacity="1"><g transform="translate(149.82139, 249.127583)"><g><path d="M 1.234375 -4.140625 L 1.234375 -9.828125 L 3.8125 -9.828125 L 3.8125 -0.953125 L 8.875 -0.953125 L 8.875 0.3125 L 8.859375 1.546875 L 1.25 1.546875 Z M 1.234375 -4.140625 "/></g></g></g><g fill="#878789" fill-opacity="1"><g transform="translate(159.115572, 249.127583)"><g><path d="M 1.265625 -9.796875 C 1.285156 -9.816406 1.71875 -9.828125 2.5625 -9.828125 L 3.859375 -9.828125 L 3.84375 -5.703125 C 3.832031 -4.328125 3.828125 -3.273438 3.828125 -2.546875 C 3.828125 -1.828125 3.820312 -1.421875 3.8125 -1.328125 C 3.800781 -1.242188 3.796875 -1.070312 3.796875 -0.8125 C 3.796875 -0.550781 3.796875 -0.195312 3.796875 0.25 L 3.796875 1.5625 L 2.515625 1.5625 L 1.234375 1.546875 L 1.25 -4.09375 C 1.25 -7.875 1.253906 -9.773438 1.265625 -9.796875 Z M 1.265625 -9.796875 "/></g></g></g><g fill="#878789" fill-opacity="1"><g transform="translate(164.200488, 249.127583)"><g><path d="M 1.359375 -9.703125 L 1.359375 -9.828125 L 3.078125 -9.828125 C 4.222656 -9.828125 4.796875 -9.816406 4.796875 -9.796875 C 4.796875 -9.773438 4.898438 -9.566406 5.109375 -9.171875 C 5.484375 -8.484375 5.929688 -7.609375 6.453125 -6.546875 C 6.984375 -5.492188 7.585938 -4.238281 8.265625 -2.78125 C 8.453125 -2.394531 8.585938 -2.097656 8.671875 -1.890625 C 8.765625 -1.691406 8.820312 -1.578125 8.84375 -1.546875 L 8.90625 -1.40625 L 8.890625 -5.625 L 8.890625 -9.828125 L 11.53125 -9.828125 L 11.53125 -6.21875 C 11.519531 -4.757812 11.507812 -3.554688 11.5 -2.609375 C 11.5 -1.660156 11.5 -0.96875 11.5 -0.53125 L 11.484375 1.53125 L 11.375 1.546875 C 11.320312 1.554688 10.785156 1.5625 9.765625 1.5625 C 9.265625 1.550781 8.882812 1.546875 8.625 1.546875 C 8.363281 1.546875 8.222656 1.539062 8.203125 1.53125 C 8.179688 1.519531 8.117188 1.425781 8.015625 1.25 C 7.910156 1.070312 7.785156 0.847656 7.640625 0.578125 C 7.503906 0.316406 7.351562 0.03125 7.1875 -0.28125 C 7.03125 -0.601562 6.878906 -0.90625 6.734375 -1.1875 C 6.585938 -1.46875 6.457031 -1.71875 6.34375 -1.9375 C 6.238281 -2.15625 6.171875 -2.289062 6.140625 -2.34375 C 5.828125 -3 5.5 -3.679688 5.15625 -4.390625 C 4.820312 -5.097656 4.484375 -5.835938 4.140625 -6.609375 L 3.78125 -7.453125 L 3.796875 -4.96875 C 3.796875 -4.90625 3.796875 -4.707031 3.796875 -4.375 C 3.796875 -4.039062 3.800781 -3.570312 3.8125 -2.96875 C 3.820312 -2.351562 3.828125 -1.835938 3.828125 -1.421875 C 3.828125 -1.003906 3.828125 -0.691406 3.828125 -0.484375 L 3.859375 1.53125 L 3.65625 1.546875 C 3.582031 1.554688 3.441406 1.5625 3.234375 1.5625 C 3.023438 1.5625 2.738281 1.5625 2.375 1.5625 C 1.6875 1.5625 1.320312 1.550781 1.28125 1.53125 C 1.238281 1.507812 1.226562 1.023438 1.25 0.078125 C 1.257812 -0.753906 1.265625 -1.597656 1.265625 -2.453125 C 1.273438 -3.304688 1.285156 -4.171875 1.296875 -5.046875 C 1.304688 -7.640625 1.320312 -9.015625 1.34375 -9.171875 C 1.351562 -9.335938 1.359375 -9.460938 1.359375 -9.546875 C 1.359375 -9.628906 1.359375 -9.679688 1.359375 -9.703125 Z M 1.359375 -9.703125 "/></g></g></g><g fill="#878789" fill-opacity="1"><g transform="translate(176.966541, 249.127583)"><g><path d="M 1.265625 -9.78125 C 1.273438 -9.789062 2.640625 -9.796875 5.359375 -9.796875 L 9.46875 -9.796875 L 9.46875 -7.765625 L 6.59375 -7.765625 L 3.71875 -7.75 L 3.703125 -6.625 L 3.703125 -5.5 L 8.96875 -5.5 L 8.96875 -3.390625 L 3.71875 -3.390625 L 3.703125 -2.203125 L 3.703125 -1.03125 L 9.625 -1.03125 L 9.625 0.21875 L 9.609375 1.46875 L 5.4375 1.484375 L 1.234375 1.484375 L 1.234375 -4.140625 C 1.234375 -7.878906 1.242188 -9.757812 1.265625 -9.78125 Z M 1.265625 -9.78125 "/></g></g></g><g fill="#878789" fill-opacity="1"><g transform="translate(187.213178, 249.127583)"><g/></g><g transform="translate(192.589982, 249.127583)"><g><path d="M 4.8125 -9.875 C 5.425781 -9.875 6.0625 -9.859375 6.71875 -9.828125 C 6.789062 -9.816406 6.882812 -9.804688 7 -9.796875 C 7.125 -9.796875 7.273438 -9.789062 7.453125 -9.78125 C 7.773438 -9.757812 7.972656 -9.742188 8.046875 -9.734375 L 8.703125 -9.703125 L 8.6875 -7.390625 C 8.664062 -7.390625 8.539062 -7.40625 8.3125 -7.4375 C 8.09375 -7.476562 7.804688 -7.523438 7.453125 -7.578125 C 7.085938 -7.617188 6.726562 -7.648438 6.375 -7.671875 C 6.03125 -7.691406 5.675781 -7.703125 5.3125 -7.703125 C 5.125 -7.703125 4.90625 -7.695312 4.65625 -7.6875 C 4.40625 -7.675781 4.171875 -7.632812 3.953125 -7.5625 C 3.734375 -7.5 3.546875 -7.394531 3.390625 -7.25 C 3.234375 -7.101562 3.15625 -6.898438 3.15625 -6.640625 C 3.15625 -6.390625 3.238281 -6.207031 3.40625 -6.09375 C 3.570312 -5.976562 3.757812 -5.898438 3.96875 -5.859375 C 4.070312 -5.828125 4.234375 -5.796875 4.453125 -5.765625 C 4.671875 -5.734375 4.941406 -5.695312 5.265625 -5.65625 C 5.816406 -5.59375 6.28125 -5.535156 6.65625 -5.484375 C 7.039062 -5.429688 7.351562 -5.363281 7.59375 -5.28125 C 7.9375 -5.164062 8.234375 -5.003906 8.484375 -4.796875 C 8.742188 -4.585938 8.957031 -4.347656 9.125 -4.078125 C 9.289062 -3.804688 9.410156 -3.503906 9.484375 -3.171875 C 9.554688 -2.847656 9.59375 -2.519531 9.59375 -2.1875 C 9.59375 -2.007812 9.585938 -1.847656 9.578125 -1.703125 C 9.578125 -1.554688 9.570312 -1.4375 9.5625 -1.34375 C 9.488281 -0.738281 9.304688 -0.242188 9.015625 0.140625 C 8.722656 0.535156 8.363281 0.84375 7.9375 1.0625 C 7.519531 1.28125 7.054688 1.429688 6.546875 1.515625 C 6.035156 1.609375 5.515625 1.65625 4.984375 1.65625 C 4.296875 1.65625 3.601562 1.578125 2.90625 1.421875 C 2.207031 1.273438 1.535156 1.066406 0.890625 0.796875 L 0.78125 0.75 L 0.765625 -0.546875 C 0.785156 -1.304688 0.800781 -1.6875 0.8125 -1.6875 C 0.851562 -1.6875 1.015625 -1.648438 1.296875 -1.578125 C 1.847656 -1.441406 2.398438 -1.332031 2.953125 -1.25 C 3.503906 -1.175781 4.066406 -1.128906 4.640625 -1.109375 C 4.847656 -1.097656 5.023438 -1.09375 5.171875 -1.09375 C 5.316406 -1.101562 5.429688 -1.113281 5.515625 -1.125 C 5.847656 -1.175781 6.117188 -1.257812 6.328125 -1.375 C 6.535156 -1.5 6.691406 -1.660156 6.796875 -1.859375 C 6.859375 -1.984375 6.890625 -2.160156 6.890625 -2.390625 C 6.890625 -2.722656 6.820312 -2.953125 6.6875 -3.078125 C 6.5625 -3.203125 6.328125 -3.296875 5.984375 -3.359375 C 5.910156 -3.378906 5.804688 -3.394531 5.671875 -3.40625 C 5.535156 -3.414062 5.367188 -3.429688 5.171875 -3.453125 C 4.390625 -3.546875 3.726562 -3.65625 3.1875 -3.78125 C 2.644531 -3.90625 2.207031 -4.0625 1.875 -4.25 C 1.425781 -4.507812 1.101562 -4.84375 0.90625 -5.25 C 0.707031 -5.664062 0.609375 -6.15625 0.609375 -6.71875 C 0.609375 -7.4375 0.78125 -8.046875 1.125 -8.546875 C 1.46875 -9.054688 1.945312 -9.410156 2.5625 -9.609375 C 2.925781 -9.734375 3.296875 -9.804688 3.671875 -9.828125 C 4.046875 -9.859375 4.425781 -9.875 4.8125 -9.875 Z M 4.8125 -9.875 "/></g></g></g><g fill="#878789" fill-opacity="1"><g transform="translate(202.8059, 249.127583)"><g><path d="M 1.171875 -5.8125 L 1.15625 -9.828125 L 3.671875 -9.828125 L 3.671875 -6.078125 C 3.671875 -4.816406 3.671875 -3.863281 3.671875 -3.21875 C 3.679688 -2.570312 3.691406 -2.222656 3.703125 -2.171875 C 3.796875 -1.691406 4.101562 -1.390625 4.625 -1.265625 C 5.039062 -1.203125 5.457031 -1.171875 5.875 -1.171875 C 6.175781 -1.171875 6.441406 -1.1875 6.671875 -1.21875 C 6.910156 -1.257812 7.117188 -1.328125 7.296875 -1.421875 C 7.484375 -1.523438 7.628906 -1.675781 7.734375 -1.875 C 7.835938 -2.070312 7.90625 -2.320312 7.9375 -2.625 C 7.945312 -2.75 7.953125 -3.035156 7.953125 -3.484375 C 7.960938 -3.941406 7.96875 -4.570312 7.96875 -5.375 C 7.96875 -6.125 7.96875 -6.785156 7.96875 -7.359375 C 7.96875 -7.929688 7.972656 -8.414062 7.984375 -8.8125 L 8 -9.828125 L 10.546875 -9.828125 L 10.53125 -6.140625 C 10.519531 -3.578125 10.488281 -2.117188 10.4375 -1.765625 C 10.375 -1.109375 10.21875 -0.5625 9.96875 -0.125 C 9.726562 0.3125 9.414062 0.660156 9.03125 0.921875 C 8.65625 1.191406 8.203125 1.378906 7.671875 1.484375 C 7.148438 1.585938 6.578125 1.640625 5.953125 1.640625 C 5.296875 1.640625 4.679688 1.585938 4.109375 1.484375 C 3.546875 1.390625 3.050781 1.203125 2.625 0.921875 C 2.207031 0.648438 1.875 0.285156 1.625 -0.171875 C 1.375 -0.628906 1.234375 -1.210938 1.203125 -1.921875 C 1.191406 -2.109375 1.179688 -2.519531 1.171875 -3.15625 C 1.171875 -3.800781 1.171875 -4.6875 1.171875 -5.8125 Z M 1.171875 -5.8125 "/></g></g></g><g fill="#878789" fill-opacity="1"><g transform="translate(214.511962, 249.127583)"><g><path d="M 6.03125 -7.734375 C 5.882812 -7.742188 5.6875 -7.75 5.4375 -7.75 C 5.195312 -7.757812 4.910156 -7.765625 4.578125 -7.765625 L 3.609375 -7.765625 L 3.609375 -4.859375 L 4.34375 -4.84375 C 4.925781 -4.820312 5.390625 -4.820312 5.734375 -4.84375 C 6.078125 -4.875 6.3125 -4.90625 6.4375 -4.9375 C 6.976562 -5.082031 7.289062 -5.394531 7.375 -5.875 C 7.414062 -6.007812 7.429688 -6.238281 7.421875 -6.5625 C 7.410156 -6.71875 7.394531 -6.847656 7.375 -6.953125 C 7.351562 -7.066406 7.332031 -7.148438 7.3125 -7.203125 C 7.257812 -7.304688 7.203125 -7.390625 7.140625 -7.453125 C 7.078125 -7.515625 7 -7.566406 6.90625 -7.609375 C 6.8125 -7.648438 6.691406 -7.675781 6.546875 -7.6875 C 6.410156 -7.707031 6.238281 -7.722656 6.03125 -7.734375 Z M 1.234375 -5.171875 L 1.234375 -9.828125 L 3.65625 -9.8125 C 5.820312 -9.800781 7.082031 -9.753906 7.4375 -9.671875 C 8.769531 -9.398438 9.550781 -8.632812 9.78125 -7.375 C 9.8125 -7.207031 9.828125 -6.914062 9.828125 -6.5 C 9.828125 -6.207031 9.820312 -5.925781 9.8125 -5.65625 C 9.800781 -5.382812 9.765625 -5.125 9.703125 -4.875 C 9.640625 -4.625 9.546875 -4.378906 9.421875 -4.140625 C 9.304688 -3.910156 9.132812 -3.679688 8.90625 -3.453125 C 8.613281 -3.160156 8.265625 -2.9375 7.859375 -2.78125 C 7.453125 -2.632812 7.050781 -2.535156 6.65625 -2.484375 C 6.5 -2.460938 6.28125 -2.445312 6 -2.4375 C 5.71875 -2.4375 5.378906 -2.429688 4.984375 -2.421875 L 3.71875 -2.40625 L 3.71875 -1.0625 C 3.71875 -0.507812 3.710938 -0.0625 3.703125 0.28125 C 3.703125 0.632812 3.695312 0.894531 3.6875 1.0625 L 3.671875 1.5625 L 2.46875 1.546875 L 1.28125 1.546875 L 1.265625 0.515625 C 1.253906 0.191406 1.242188 -0.441406 1.234375 -1.390625 C 1.234375 -2.335938 1.234375 -3.597656 1.234375 -5.171875 Z M 1.234375 -5.171875 "/></g></g></g><g fill="#878789" fill-opacity="1"><g transform="translate(224.896866, 249.127583)"><g><path d="M 6.03125 -7.734375 C 5.882812 -7.742188 5.6875 -7.75 5.4375 -7.75 C 5.195312 -7.757812 4.910156 -7.765625 4.578125 -7.765625 L 3.609375 -7.765625 L 3.609375 -4.859375 L 4.34375 -4.84375 C 4.925781 -4.820312 5.390625 -4.820312 5.734375 -4.84375 C 6.078125 -4.875 6.3125 -4.90625 6.4375 -4.9375 C 6.976562 -5.082031 7.289062 -5.394531 7.375 -5.875 C 7.414062 -6.007812 7.429688 -6.238281 7.421875 -6.5625 C 7.410156 -6.71875 7.394531 -6.847656 7.375 -6.953125 C 7.351562 -7.066406 7.332031 -7.148438 7.3125 -7.203125 C 7.257812 -7.304688 7.203125 -7.390625 7.140625 -7.453125 C 7.078125 -7.515625 7 -7.566406 6.90625 -7.609375 C 6.8125 -7.648438 6.691406 -7.675781 6.546875 -7.6875 C 6.410156 -7.707031 6.238281 -7.722656 6.03125 -7.734375 Z M 1.234375 -5.171875 L 1.234375 -9.828125 L 3.65625 -9.8125 C 5.820312 -9.800781 7.082031 -9.753906 7.4375 -9.671875 C 8.769531 -9.398438 9.550781 -8.632812 9.78125 -7.375 C 9.8125 -7.207031 9.828125 -6.914062 9.828125 -6.5 C 9.828125 -6.207031 9.820312 -5.925781 9.8125 -5.65625 C 9.800781 -5.382812 9.765625 -5.125 9.703125 -4.875 C 9.640625 -4.625 9.546875 -4.378906 9.421875 -4.140625 C 9.304688 -3.910156 9.132812 -3.679688 8.90625 -3.453125 C 8.613281 -3.160156 8.265625 -2.9375 7.859375 -2.78125 C 7.453125 -2.632812 7.050781 -2.535156 6.65625 -2.484375 C 6.5 -2.460938 6.28125 -2.445312 6 -2.4375 C 5.71875 -2.4375 5.378906 -2.429688 4.984375 -2.421875 L 3.71875 -2.40625 L 3.71875 -1.0625 C 3.71875 -0.507812 3.710938 -0.0625 3.703125 0.28125 C 3.703125 0.632812 3.695312 0.894531 3.6875 1.0625 L 3.671875 1.5625 L 2.46875 1.546875 L 1.28125 1.546875 L 1.265625 0.515625 C 1.253906 0.191406 1.242188 -0.441406 1.234375 -1.390625 C 1.234375 -2.335938 1.234375 -3.597656 1.234375 -5.171875 Z M 1.234375 -5.171875 "/></g></g></g><g fill="#878789" fill-opacity="1"><g transform="translate(235.28177, 249.127583)"><g><path d="M 6.609375 -7.984375 C 5.796875 -7.984375 5.15625 -7.828125 4.6875 -7.515625 C 4.226562 -7.210938 3.925781 -6.660156 3.78125 -5.859375 C 3.738281 -5.660156 3.71875 -5.234375 3.71875 -4.578125 C 3.707031 -4.242188 3.703125 -3.960938 3.703125 -3.734375 C 3.710938 -3.503906 3.722656 -3.316406 3.734375 -3.171875 C 3.785156 -2.535156 3.9375 -2.046875 4.1875 -1.703125 C 4.445312 -1.367188 4.832031 -1.128906 5.34375 -0.984375 C 5.5 -0.941406 5.785156 -0.921875 6.203125 -0.921875 C 6.453125 -0.921875 6.695312 -0.941406 6.9375 -0.984375 C 7.175781 -1.023438 7.394531 -1.097656 7.59375 -1.203125 C 7.800781 -1.304688 7.976562 -1.445312 8.125 -1.625 C 8.28125 -1.800781 8.394531 -2.023438 8.46875 -2.296875 C 8.507812 -2.421875 8.550781 -2.691406 8.59375 -3.109375 C 8.632812 -3.535156 8.65625 -4.117188 8.65625 -4.859375 C 8.65625 -5.222656 8.632812 -5.585938 8.59375 -5.953125 C 8.550781 -6.316406 8.457031 -6.644531 8.3125 -6.9375 C 8.164062 -7.226562 7.957031 -7.46875 7.6875 -7.65625 C 7.414062 -7.84375 7.054688 -7.953125 6.609375 -7.984375 Z M 5.703125 -9.921875 C 5.929688 -9.941406 6.125 -9.941406 6.28125 -9.921875 C 6.625 -9.910156 6.96875 -9.882812 7.3125 -9.84375 C 7.65625 -9.8125 7.988281 -9.742188 8.3125 -9.640625 C 8.632812 -9.546875 8.941406 -9.414062 9.234375 -9.25 C 9.535156 -9.09375 9.8125 -8.878906 10.0625 -8.609375 C 10.6875 -7.992188 11.070312 -7.160156 11.21875 -6.109375 C 11.25 -5.859375 11.265625 -5.21875 11.265625 -4.1875 C 11.253906 -3.664062 11.242188 -3.25 11.234375 -2.9375 C 11.222656 -2.632812 11.207031 -2.425781 11.1875 -2.3125 C 11.070312 -1.664062 10.882812 -1.070312 10.625 -0.53125 C 10.363281 0.0078125 9.945312 0.46875 9.375 0.84375 C 8.976562 1.113281 8.523438 1.316406 8.015625 1.453125 C 7.503906 1.585938 6.925781 1.65625 6.28125 1.65625 C 4.644531 1.65625 3.375 1.273438 2.46875 0.515625 C 1.570312 -0.242188 1.066406 -1.476562 0.953125 -3.1875 C 0.941406 -3.351562 0.929688 -3.550781 0.921875 -3.78125 C 0.921875 -4.007812 0.925781 -4.273438 0.9375 -4.578125 C 0.945312 -5.035156 0.976562 -5.476562 1.03125 -5.90625 C 1.09375 -6.332031 1.195312 -6.734375 1.34375 -7.109375 C 1.488281 -7.492188 1.679688 -7.851562 1.921875 -8.1875 C 2.171875 -8.519531 2.5 -8.828125 2.90625 -9.109375 C 3.644531 -9.585938 4.578125 -9.859375 5.703125 -9.921875 Z M 5.703125 -9.921875 "/></g></g></g><g fill="#878789" fill-opacity="1"><g transform="translate(247.464059, 249.127583)"><g><path d="M 6.46875 -8.015625 C 6.351562 -8.035156 6.171875 -8.046875 5.921875 -8.046875 C 5.671875 -8.054688 5.347656 -8.0625 4.953125 -8.0625 C 4.140625 -8.039062 3.710938 -8.019531 3.671875 -8 C 3.648438 -7.976562 3.640625 -7.492188 3.640625 -6.546875 L 3.640625 -5.109375 L 4.640625 -5.109375 C 5.347656 -5.128906 5.828125 -5.144531 6.078125 -5.15625 C 6.378906 -5.1875 6.613281 -5.242188 6.78125 -5.328125 C 7.300781 -5.585938 7.523438 -6.125 7.453125 -6.9375 C 7.421875 -7.269531 7.328125 -7.519531 7.171875 -7.6875 C 7.023438 -7.851562 6.789062 -7.960938 6.46875 -8.015625 Z M 1.25 -9.8125 C 1.257812 -9.820312 2.03125 -9.828125 3.5625 -9.828125 C 4.332031 -9.828125 4.941406 -9.820312 5.390625 -9.8125 C 5.835938 -9.8125 6.132812 -9.804688 6.28125 -9.796875 C 7.019531 -9.753906 7.617188 -9.65625 8.078125 -9.5 C 8.546875 -9.34375 8.9375 -9.109375 9.25 -8.796875 C 9.570312 -8.472656 9.796875 -8.097656 9.921875 -7.671875 C 10.046875 -7.242188 10.085938 -6.695312 10.046875 -6.03125 C 10.015625 -5.414062 9.863281 -4.878906 9.59375 -4.421875 C 9.332031 -3.972656 8.910156 -3.613281 8.328125 -3.34375 L 8.0625 -3.234375 L 8.640625 -2.109375 C 8.835938 -1.734375 9 -1.40625 9.125 -1.125 C 9.257812 -0.851562 9.367188 -0.625 9.453125 -0.4375 C 9.679688 0.09375 9.867188 0.523438 10.015625 0.859375 C 10.171875 1.191406 10.28125 1.425781 10.34375 1.5625 L 7.5625 1.5625 C 7.40625 1.1875 7.195312 0.6875 6.9375 0.0625 C 6.6875 -0.5625 6.378906 -1.347656 6.015625 -2.296875 C 5.929688 -2.503906 5.875 -2.660156 5.84375 -2.765625 C 5.8125 -2.878906 5.789062 -2.941406 5.78125 -2.953125 C 5.769531 -2.984375 5.421875 -3 4.734375 -3 C 4.054688 -3 3.707031 -2.992188 3.6875 -2.984375 C 3.65625 -2.972656 3.640625 -2.207031 3.640625 -0.6875 L 3.640625 1.5625 L 1.265625 1.5625 L 1.25 -0.359375 C 1.238281 -0.992188 1.234375 -1.773438 1.234375 -2.703125 C 1.234375 -3.628906 1.234375 -4.726562 1.234375 -6 C 1.234375 -8.53125 1.238281 -9.800781 1.25 -9.8125 Z M 1.25 -9.8125 "/></g></g></g><g fill="#878789" fill-opacity="1"><g transform="translate(258.248386, 249.127583)"><g><path d="M 0.453125 -9.78125 L 9.765625 -9.78125 L 9.765625 -7.6875 L 6.4375 -7.6875 L 6.4375 -3.140625 L 6.421875 1.5625 L 3.90625 1.5625 L 3.875 -7.671875 L 2.171875 -7.6875 L 0.453125 -7.6875 Z M 0.453125 -9.78125 "/></g></g></g><g fill="#ee4a62" fill-opacity="1"><g transform="translate(124.104942, 281.400994)"><g><path d="M 6.984375 -9.1875 L 11.078125 -9.1875 L 11.078125 -7.59375 L 6.984375 -7.59375 L 6.984375 -3.453125 L 5.296875 -3.453125 L 5.296875 -7.59375 L 1.1875 -7.59375 L 1.1875 -9.1875 L 5.296875 -9.1875 L 5.296875 -13.328125 L 6.984375 -13.328125 Z M 6.984375 -9.1875 "/></g></g></g><g fill="#ee4a62" fill-opacity="1"><g transform="translate(136.361466, 281.400994)"><g><path d="M 7.09375 0.234375 C 5.632812 0.234375 4.453125 -0.09375 3.546875 -0.75 C 2.640625 -1.414062 2.066406 -2.328125 1.828125 -3.484375 L 3.28125 -4.140625 L 3.546875 -4.09375 C 3.816406 -3.25 4.226562 -2.609375 4.78125 -2.171875 C 5.332031 -1.742188 6.101562 -1.53125 7.09375 -1.53125 C 8.488281 -1.53125 9.550781 -2.113281 10.28125 -3.28125 C 11.019531 -4.445312 11.390625 -6.242188 11.390625 -8.671875 L 11.140625 -8.75 C 10.671875 -7.789062 10.078125 -7.070312 9.359375 -6.59375 C 8.640625 -6.125 7.734375 -5.890625 6.640625 -5.890625 C 5.597656 -5.890625 4.6875 -6.117188 3.90625 -6.578125 C 3.132812 -7.035156 2.535156 -7.679688 2.109375 -8.515625 C 1.691406 -9.347656 1.484375 -10.316406 1.484375 -11.421875 C 1.484375 -12.535156 1.710938 -13.515625 2.171875 -14.359375 C 2.640625 -15.203125 3.296875 -15.851562 4.140625 -16.3125 C 4.984375 -16.78125 5.96875 -17.015625 7.09375 -17.015625 C 9.0625 -17.015625 10.597656 -16.347656 11.703125 -15.015625 C 12.816406 -13.691406 13.375 -11.546875 13.375 -8.578125 C 13.375 -6.578125 13.109375 -4.914062 12.578125 -3.59375 C 12.054688 -2.28125 11.328125 -1.3125 10.390625 -0.6875 C 9.453125 -0.0703125 8.351562 0.234375 7.09375 0.234375 Z M 7.09375 -7.625 C 7.851562 -7.625 8.507812 -7.769531 9.0625 -8.0625 C 9.625 -8.363281 10.054688 -8.800781 10.359375 -9.375 C 10.660156 -9.945312 10.8125 -10.628906 10.8125 -11.421875 C 10.8125 -12.222656 10.660156 -12.910156 10.359375 -13.484375 C 10.054688 -14.054688 9.625 -14.492188 9.0625 -14.796875 C 8.507812 -15.097656 7.851562 -15.25 7.09375 -15.25 C 5.976562 -15.25 5.109375 -14.921875 4.484375 -14.265625 C 3.859375 -13.609375 3.546875 -12.660156 3.546875 -11.421875 C 3.546875 -10.179688 3.859375 -9.238281 4.484375 -8.59375 C 5.109375 -7.945312 5.976562 -7.625 7.09375 -7.625 Z M 7.09375 -7.625 "/></g></g></g><g fill="#ee4a62" fill-opacity="1"><g transform="translate(151.464074, 281.400994)"><g><path d="M 1.1875 0 L 1.1875 -1.625 L 5.765625 -1.625 L 5.765625 -14.453125 L 5.515625 -14.53125 C 4.765625 -14.15625 4.109375 -13.867188 3.546875 -13.671875 C 2.992188 -13.484375 2.28125 -13.296875 1.40625 -13.109375 L 1.40625 -14.921875 C 2.269531 -15.109375 3.125 -15.359375 3.96875 -15.671875 C 4.820312 -15.984375 5.59375 -16.351562 6.28125 -16.78125 L 7.703125 -16.78125 L 7.703125 -1.625 L 11.796875 -1.625 L 11.796875 0 Z M 1.1875 0 "/></g></g></g><g fill="#ee4a62" fill-opacity="1"><g transform="translate(163.973073, 281.400994)"><g/></g></g><g fill="#ee4a62" fill-opacity="1"><g transform="translate(169.734098, 281.400994)"><g><path d="M 7.09375 0.234375 C 5.632812 0.234375 4.453125 -0.09375 3.546875 -0.75 C 2.640625 -1.414062 2.066406 -2.328125 1.828125 -3.484375 L 3.28125 -4.140625 L 3.546875 -4.09375 C 3.816406 -3.25 4.226562 -2.609375 4.78125 -2.171875 C 5.332031 -1.742188 6.101562 -1.53125 7.09375 -1.53125 C 8.488281 -1.53125 9.550781 -2.113281 10.28125 -3.28125 C 11.019531 -4.445312 11.390625 -6.242188 11.390625 -8.671875 L 11.140625 -8.75 C 10.671875 -7.789062 10.078125 -7.070312 9.359375 -6.59375 C 8.640625 -6.125 7.734375 -5.890625 6.640625 -5.890625 C 5.597656 -5.890625 4.6875 -6.117188 3.90625 -6.578125 C 3.132812 -7.035156 2.535156 -7.679688 2.109375 -8.515625 C 1.691406 -9.347656 1.484375 -10.316406 1.484375 -11.421875 C 1.484375 -12.535156 1.710938 -13.515625 2.171875 -14.359375 C 2.640625 -15.203125 3.296875 -15.851562 4.140625 -16.3125 C 4.984375 -16.78125 5.96875 -17.015625 7.09375 -17.015625 C 9.0625 -17.015625 10.597656 -16.347656 11.703125 -15.015625 C 12.816406 -13.691406 13.375 -11.546875 13.375 -8.578125 C 13.375 -6.578125 13.109375 -4.914062 12.578125 -3.59375 C 12.054688 -2.28125 11.328125 -1.3125 10.390625 -0.6875 C 9.453125 -0.0703125 8.351562 0.234375 7.09375 0.234375 Z M 7.09375 -7.625 C 7.851562 -7.625 8.507812 -7.769531 9.0625 -8.0625 C 9.625 -8.363281 10.054688 -8.800781 10.359375 -9.375 C 10.660156 -9.945312 10.8125 -10.628906 10.8125 -11.421875 C 10.8125 -12.222656 10.660156 -12.910156 10.359375 -13.484375 C 10.054688 -14.054688 9.625 -14.492188 9.0625 -14.796875 C 8.507812 -15.097656 7.851562 -15.25 7.09375 -15.25 C 5.976562 -15.25 5.109375 -14.921875 4.484375 -14.265625 C 3.859375 -13.609375 3.546875 -12.660156 3.546875 -11.421875 C 3.546875 -10.179688 3.859375 -9.238281 4.484375 -8.59375 C 5.109375 -7.945312 5.976562 -7.625 7.09375 -7.625 Z M 7.09375 -7.625 "/></g></g></g><g fill="#ee4a62" fill-opacity="1"><g transform="translate(184.836707, 281.400994)"><g><path d="M 7.09375 0.234375 C 5.863281 0.234375 4.816406 0.0390625 3.953125 -0.34375 C 3.085938 -0.738281 2.425781 -1.300781 1.96875 -2.03125 C 1.519531 -2.757812 1.296875 -3.625 1.296875 -4.625 C 1.296875 -5.6875 1.554688 -6.570312 2.078125 -7.28125 C 2.609375 -8 3.390625 -8.5625 4.421875 -8.96875 L 4.421875 -9.203125 C 3.703125 -9.640625 3.144531 -10.144531 2.75 -10.71875 C 2.351562 -11.300781 2.15625 -11.984375 2.15625 -12.765625 C 2.15625 -13.628906 2.359375 -14.378906 2.765625 -15.015625 C 3.171875 -15.648438 3.742188 -16.140625 4.484375 -16.484375 C 5.234375 -16.835938 6.101562 -17.015625 7.09375 -17.015625 C 8.082031 -17.015625 8.953125 -16.835938 9.703125 -16.484375 C 10.453125 -16.140625 11.023438 -15.648438 11.421875 -15.015625 C 11.828125 -14.378906 12.03125 -13.628906 12.03125 -12.765625 C 12.03125 -11.984375 11.832031 -11.300781 11.4375 -10.71875 C 11.039062 -10.144531 10.476562 -9.640625 9.75 -9.203125 L 9.75 -8.96875 C 10.789062 -8.5625 11.570312 -8 12.09375 -7.28125 C 12.625 -6.570312 12.890625 -5.6875 12.890625 -4.625 C 12.890625 -3.625 12.664062 -2.757812 12.21875 -2.03125 C 11.769531 -1.300781 11.109375 -0.738281 10.234375 -0.34375 C 9.359375 0.0390625 8.3125 0.234375 7.09375 0.234375 Z M 7.09375 -9.734375 C 7.6875 -9.734375 8.210938 -9.84375 8.671875 -10.0625 C 9.128906 -10.289062 9.484375 -10.617188 9.734375 -11.046875 C 9.992188 -11.472656 10.125 -11.972656 10.125 -12.546875 C 10.125 -13.117188 9.992188 -13.617188 9.734375 -14.046875 C 9.484375 -14.484375 9.125 -14.816406 8.65625 -15.046875 C 8.195312 -15.273438 7.675781 -15.390625 7.09375 -15.390625 C 6.164062 -15.390625 5.429688 -15.132812 4.890625 -14.625 C 4.347656 -14.113281 4.078125 -13.421875 4.078125 -12.546875 C 4.078125 -11.671875 4.347656 -10.984375 4.890625 -10.484375 C 5.429688 -9.984375 6.164062 -9.734375 7.09375 -9.734375 Z M 7.09375 -1.484375 C 8.300781 -1.484375 9.222656 -1.769531 9.859375 -2.34375 C 10.503906 -2.925781 10.828125 -3.726562 10.828125 -4.75 C 10.828125 -5.769531 10.503906 -6.566406 9.859375 -7.140625 C 9.222656 -7.722656 8.300781 -8.015625 7.09375 -8.015625 C 5.882812 -8.015625 4.957031 -7.722656 4.3125 -7.140625 C 3.664062 -6.566406 3.34375 -5.769531 3.34375 -4.75 C 3.34375 -3.726562 3.664062 -2.925781 4.3125 -2.34375 C 4.957031 -1.769531 5.882812 -1.484375 7.09375 -1.484375 Z M 7.09375 -1.484375 "/></g></g></g><g fill="#ee4a62" fill-opacity="1"><g transform="translate(199.032702, 281.400994)"><g><path d="M 8.015625 0.234375 C 6.828125 0.234375 5.757812 -0.046875 4.8125 -0.609375 C 3.875 -1.179688 3.125 -2.109375 2.5625 -3.390625 C 2 -4.679688 1.71875 -6.347656 1.71875 -8.390625 C 1.71875 -10.367188 2 -12.003906 2.5625 -13.296875 C 3.125 -14.585938 3.890625 -15.53125 4.859375 -16.125 C 5.835938 -16.71875 6.945312 -17.015625 8.1875 -17.015625 C 10.34375 -17.015625 11.925781 -16.363281 12.9375 -15.0625 L 11.984375 -13.765625 L 11.6875 -13.765625 C 10.863281 -14.753906 9.695312 -15.25 8.1875 -15.25 C 6.738281 -15.25 5.628906 -14.695312 4.859375 -13.59375 C 4.097656 -12.5 3.71875 -10.75 3.71875 -8.34375 L 3.953125 -8.265625 C 4.410156 -9.222656 5.003906 -9.9375 5.734375 -10.40625 C 6.472656 -10.882812 7.378906 -11.125 8.453125 -11.125 C 9.515625 -11.125 10.429688 -10.894531 11.203125 -10.4375 C 11.984375 -9.988281 12.582031 -9.335938 13 -8.484375 C 13.414062 -7.628906 13.625 -6.625 13.625 -5.46875 C 13.625 -4.300781 13.394531 -3.285156 12.9375 -2.421875 C 12.476562 -1.566406 11.820312 -0.910156 10.96875 -0.453125 C 10.125 0.00390625 9.140625 0.234375 8.015625 0.234375 Z M 8.015625 -1.53125 C 9.117188 -1.53125 9.984375 -1.867188 10.609375 -2.546875 C 11.242188 -3.222656 11.5625 -4.195312 11.5625 -5.46875 C 11.5625 -6.738281 11.242188 -7.707031 10.609375 -8.375 C 9.984375 -9.050781 9.117188 -9.390625 8.015625 -9.390625 C 7.253906 -9.390625 6.59375 -9.234375 6.03125 -8.921875 C 5.476562 -8.617188 5.050781 -8.171875 4.75 -7.578125 C 4.445312 -6.992188 4.296875 -6.289062 4.296875 -5.46875 C 4.296875 -4.644531 4.445312 -3.9375 4.75 -3.34375 C 5.050781 -2.757812 5.476562 -2.3125 6.03125 -2 C 6.59375 -1.6875 7.253906 -1.53125 8.015625 -1.53125 Z M 8.015625 -1.53125 "/></g></g></g><g fill="#ee4a62" fill-opacity="1"><g transform="translate(214.14679, 281.400994)"><g><path d="M 4.5625 0 L 2.640625 0 L 8.875 -14.859375 L 8.796875 -15.09375 L 0.625 -15.09375 L 0.625 -16.78125 L 10.859375 -16.78125 L 10.859375 -14.96875 Z M 4.5625 0 "/></g></g></g><g fill="#ee4a62" fill-opacity="1"><g transform="translate(225.737697, 281.400994)"><g><path d="M 7.09375 0.234375 C 5.632812 0.234375 4.453125 -0.09375 3.546875 -0.75 C 2.640625 -1.414062 2.066406 -2.328125 1.828125 -3.484375 L 3.28125 -4.140625 L 3.546875 -4.09375 C 3.816406 -3.25 4.226562 -2.609375 4.78125 -2.171875 C 5.332031 -1.742188 6.101562 -1.53125 7.09375 -1.53125 C 8.488281 -1.53125 9.550781 -2.113281 10.28125 -3.28125 C 11.019531 -4.445312 11.390625 -6.242188 11.390625 -8.671875 L 11.140625 -8.75 C 10.671875 -7.789062 10.078125 -7.070312 9.359375 -6.59375 C 8.640625 -6.125 7.734375 -5.890625 6.640625 -5.890625 C 5.597656 -5.890625 4.6875 -6.117188 3.90625 -6.578125 C 3.132812 -7.035156 2.535156 -7.679688 2.109375 -8.515625 C 1.691406 -9.347656 1.484375 -10.316406 1.484375 -11.421875 C 1.484375 -12.535156 1.710938 -13.515625 2.171875 -14.359375 C 2.640625 -15.203125 3.296875 -15.851562 4.140625 -16.3125 C 4.984375 -16.78125 5.96875 -17.015625 7.09375 -17.015625 C 9.0625 -17.015625 10.597656 -16.347656 11.703125 -15.015625 C 12.816406 -13.691406 13.375 -11.546875 13.375 -8.578125 C 13.375 -6.578125 13.109375 -4.914062 12.578125 -3.59375 C 12.054688 -2.28125 11.328125 -1.3125 10.390625 -0.6875 C 9.453125 -0.0703125 8.351562 0.234375 7.09375 0.234375 Z M 7.09375 -7.625 C 7.851562 -7.625 8.507812 -7.769531 9.0625 -8.0625 C 9.625 -8.363281 10.054688 -8.800781 10.359375 -9.375 C 10.660156 -9.945312 10.8125 -10.628906 10.8125 -11.421875 C 10.8125 -12.222656 10.660156 -12.910156 10.359375 -13.484375 C 10.054688 -14.054688 9.625 -14.492188 9.0625 -14.796875 C 8.507812 -15.097656 7.851562 -15.25 7.09375 -15.25 C 5.976562 -15.25 5.109375 -14.921875 4.484375 -14.265625 C 3.859375 -13.609375 3.546875 -12.660156 3.546875 -11.421875 C 3.546875 -10.179688 3.859375 -9.238281 4.484375 -8.59375 C 5.109375 -7.945312 5.976562 -7.625 7.09375 -7.625 Z M 7.09375 -7.625 "/></g></g></g><g fill="#ee4a62" fill-opacity="1"><g transform="translate(240.840312, 281.400994)"><g><path d="M 4.5625 0 L 2.640625 0 L 8.875 -14.859375 L 8.796875 -15.09375 L 0.625 -15.09375 L 0.625 -16.78125 L 10.859375 -16.78125 L 10.859375 -14.96875 Z M 4.5625 0 "/></g></g></g><g fill="#ee4a62" fill-opacity="1"><g transform="translate(252.431213, 281.400994)"><g><path d="M 8.25 0.234375 C 7.019531 0.234375 5.914062 -0.0546875 4.9375 -0.640625 C 3.957031 -1.234375 3.175781 -2.175781 2.59375 -3.46875 C 2.007812 -4.757812 1.71875 -6.398438 1.71875 -8.390625 C 1.71875 -10.378906 2.007812 -12.015625 2.59375 -13.296875 C 3.175781 -14.585938 3.957031 -15.53125 4.9375 -16.125 C 5.914062 -16.71875 7.019531 -17.015625 8.25 -17.015625 C 9.476562 -17.015625 10.582031 -16.71875 11.5625 -16.125 C 12.539062 -15.53125 13.316406 -14.585938 13.890625 -13.296875 C 14.472656 -12.015625 14.765625 -10.378906 14.765625 -8.390625 C 14.765625 -6.398438 14.472656 -4.757812 13.890625 -3.46875 C 13.316406 -2.175781 12.539062 -1.234375 11.5625 -0.640625 C 10.582031 -0.0546875 9.476562 0.234375 8.25 0.234375 Z M 8.25 -1.578125 C 9.707031 -1.578125 10.8125 -2.101562 11.5625 -3.15625 C 12.320312 -4.207031 12.703125 -5.953125 12.703125 -8.390625 C 12.703125 -10.816406 12.320312 -12.554688 11.5625 -13.609375 C 10.8125 -14.660156 9.707031 -15.1875 8.25 -15.1875 C 7.28125 -15.1875 6.46875 -14.960938 5.8125 -14.515625 C 5.15625 -14.078125 4.648438 -13.359375 4.296875 -12.359375 C 3.953125 -11.359375 3.78125 -10.035156 3.78125 -8.390625 C 3.78125 -6.742188 3.953125 -5.421875 4.296875 -4.421875 C 4.648438 -3.421875 5.15625 -2.695312 5.8125 -2.25 C 6.46875 -1.800781 7.28125 -1.578125 8.25 -1.578125 Z M 8.25 -1.578125 "/></g></g></g><g fill="#ee4a62" fill-opacity="1"><g transform="translate(268.933918, 281.400994)"><g><path d="M 1.015625 -0.765625 C 1.015625 -1.691406 1.113281 -2.4375 1.3125 -3 C 1.519531 -3.570312 1.867188 -4.101562 2.359375 -4.59375 C 2.847656 -5.082031 3.625 -5.71875 4.6875 -6.5 L 6.546875 -7.84375 C 7.222656 -8.332031 7.773438 -8.785156 8.203125 -9.203125 C 8.628906 -9.628906 8.96875 -10.085938 9.21875 -10.578125 C 9.46875 -11.078125 9.59375 -11.632812 9.59375 -12.25 C 9.59375 -13.238281 9.328125 -13.984375 8.796875 -14.484375 C 8.273438 -14.992188 7.453125 -15.25 6.328125 -15.25 C 5.429688 -15.25 4.640625 -15.039062 3.953125 -14.625 C 3.265625 -14.21875 2.71875 -13.632812 2.3125 -12.875 L 2.046875 -12.828125 L 0.859375 -14.0625 C 1.421875 -14.976562 2.160156 -15.695312 3.078125 -16.21875 C 4.003906 -16.75 5.085938 -17.015625 6.328125 -17.015625 C 7.515625 -17.015625 8.5 -16.8125 9.28125 -16.40625 C 10.070312 -16 10.65625 -15.4375 11.03125 -14.71875 C 11.40625 -14.007812 11.59375 -13.1875 11.59375 -12.25 C 11.59375 -11.5 11.4375 -10.796875 11.125 -10.140625 C 10.8125 -9.492188 10.367188 -8.882812 9.796875 -8.3125 C 9.222656 -7.738281 8.503906 -7.132812 7.640625 -6.5 L 5.765625 -5.125 C 5.078125 -4.613281 4.546875 -4.175781 4.171875 -3.8125 C 3.796875 -3.457031 3.519531 -3.109375 3.34375 -2.765625 C 3.175781 -2.429688 3.09375 -2.050781 3.09375 -1.625 L 11.59375 -1.625 L 11.59375 0 L 1.015625 0 Z M 1.015625 -0.765625 "/></g></g></g><g fill="#ee4a62" fill-opacity="1"><g transform="translate(281.833106, 281.400994)"><g><path d="M 10.5 0 L 8.625 0 L 8.625 -4 L 0.765625 -4 L 0.765625 -5.59375 L 8.171875 -16.78125 L 10.5 -16.78125 L 10.5 -5.59375 L 13.40625 -5.59375 L 13.40625 -4 L 10.5 -4 Z M 3.09375 -5.828125 L 3.1875 -5.59375 L 8.625 -5.59375 L 8.625 -14.046875 L 8.359375 -14.09375 Z M 3.09375 -5.828125 "/></g></g></g><g fill="#ee4a62" fill-opacity="1"><g transform="translate(296.052054, 281.400994)"><g><path d="M 8.25 0.234375 C 7.019531 0.234375 5.914062 -0.0546875 4.9375 -0.640625 C 3.957031 -1.234375 3.175781 -2.175781 2.59375 -3.46875 C 2.007812 -4.757812 1.71875 -6.398438 1.71875 -8.390625 C 1.71875 -10.378906 2.007812 -12.015625 2.59375 -13.296875 C 3.175781 -14.585938 3.957031 -15.53125 4.9375 -16.125 C 5.914062 -16.71875 7.019531 -17.015625 8.25 -17.015625 C 9.476562 -17.015625 10.582031 -16.71875 11.5625 -16.125 C 12.539062 -15.53125 13.316406 -14.585938 13.890625 -13.296875 C 14.472656 -12.015625 14.765625 -10.378906 14.765625 -8.390625 C 14.765625 -6.398438 14.472656 -4.757812 13.890625 -3.46875 C 13.316406 -2.175781 12.539062 -1.234375 11.5625 -0.640625 C 10.582031 -0.0546875 9.476562 0.234375 8.25 0.234375 Z M 8.25 -1.578125 C 9.707031 -1.578125 10.8125 -2.101562 11.5625 -3.15625 C 12.320312 -4.207031 12.703125 -5.953125 12.703125 -8.390625 C 12.703125 -10.816406 12.320312 -12.554688 11.5625 -13.609375 C 10.8125 -14.660156 9.707031 -15.1875 8.25 -15.1875 C 7.28125 -15.1875 6.46875 -14.960938 5.8125 -14.515625 C 5.15625 -14.078125 4.648438 -13.359375 4.296875 -12.359375 C 3.953125 -11.359375 3.78125 -10.035156 3.78125 -8.390625 C 3.78125 -6.742188 3.953125 -5.421875 4.296875 -4.421875 C 4.648438 -3.421875 5.15625 -2.695312 5.8125 -2.25 C 6.46875 -1.800781 7.28125 -1.578125 8.25 -1.578125 Z M 8.25 -1.578125 "/></g></g></g></svg>